<?xml version="1.0" encoding="UTF-8" standalone="no"?>
<!DOCTYPE svg PUBLIC "-//W3C//DTD SVG 1.1//EN"
 "http://www.w3.org/Graphics/SVG/1.1/DTD/svg11.dtd">
<!-- Generated by graphviz version 2.40.1 (20161225.0304)
 -->
<!-- Title: snakemake_dag Pages: 1 -->
<svg width="874pt" height="764pt"
 viewBox="0.00 0.00 874.00 764.00" xmlns="http://www.w3.org/2000/svg" xmlns:xlink="http://www.w3.org/1999/xlink">
<g id="graph0" class="graph" transform="scale(1 1) rotate(0) translate(4 760)">
<title>snakemake_dag</title>
<polygon fill="#ffffff" stroke="transparent" points="-4,4 -4,-760 869.9953,-760 869.9953,4 -4,4"/>
<!-- 0 -->
<g id="node1" class="node">
<title>0</title>
<path fill="none" stroke="#59d856" stroke-width="2" d="M499.9953,-36C499.9953,-36 469.9953,-36 469.9953,-36 463.9953,-36 457.9953,-30 457.9953,-24 457.9953,-24 457.9953,-12 457.9953,-12 457.9953,-6 463.9953,0 469.9953,0 469.9953,0 499.9953,0 499.9953,0 505.9953,0 511.9953,-6 511.9953,-12 511.9953,-12 511.9953,-24 511.9953,-24 511.9953,-30 505.9953,-36 499.9953,-36"/>
<text text-anchor="middle" x="484.9953" y="-15.5" font-family="sans" font-size="10.00" fill="#000000">all</text>
</g>
<!-- 1 -->
<g id="node2" class="node">
<title>1</title>
<path fill="none" stroke="#d8c356" stroke-width="2" d="M574.9953,-108C574.9953,-108 496.9953,-108 496.9953,-108 490.9953,-108 484.9953,-102 484.9953,-96 484.9953,-96 484.9953,-84 484.9953,-84 484.9953,-78 490.9953,-72 496.9953,-72 496.9953,-72 574.9953,-72 574.9953,-72 580.9953,-72 586.9953,-78 586.9953,-84 586.9953,-84 586.9953,-96 586.9953,-96 586.9953,-102 580.9953,-108 574.9953,-108"/>
<text text-anchor="middle" x="535.9953" y="-87.5" font-family="sans" font-size="10.00" fill="#000000">diginorm_multiqc</text>
</g>
<!-- 1&#45;&gt;0 -->
<g id="edge2" class="edge">
<title>1&#45;&gt;0</title>
<path fill="none" stroke="#c0c0c0" stroke-width="2" d="M523.1259,-71.8314C517.3118,-63.6232 510.3257,-53.7606 503.9307,-44.7323"/>
<polygon fill="#c0c0c0" stroke="#c0c0c0" stroke-width="2" points="506.6744,-42.5505 498.0381,-36.4133 500.9622,-46.5966 506.6744,-42.5505"/>
</g>
<!-- 2 -->
<g id="node3" class="node">
<title>2</title>
<path fill="none" stroke="#56d8c1" stroke-width="2" d="M201.4953,-540C201.4953,-540 148.4953,-540 148.4953,-540 142.4953,-540 136.4953,-534 136.4953,-528 136.4953,-528 136.4953,-516 136.4953,-516 136.4953,-510 142.4953,-504 148.4953,-504 148.4953,-504 201.4953,-504 201.4953,-504 207.4953,-504 213.4953,-510 213.4953,-516 213.4953,-516 213.4953,-528 213.4953,-528 213.4953,-534 207.4953,-540 201.4953,-540"/>
<text text-anchor="middle" x="174.9953" y="-519.5" font-family="sans" font-size="10.00" fill="#000000">raw_multiqc</text>
</g>
<!-- 2&#45;&gt;0 -->
<g id="edge4" class="edge">
<title>2&#45;&gt;0</title>
<path fill="none" stroke="#c0c0c0" stroke-width="2" d="M136.2999,-513.0377C95.9374,-502.917 36.4218,-485.5604 20.9953,-468 -5.986,-437.2865 1.9953,-418.8816 1.9953,-378 1.9953,-378 1.9953,-378 1.9953,-162 1.9953,-69.074 334.4786,-31.2205 447.7348,-21.0218"/>
<polygon fill="#c0c0c0" stroke="#c0c0c0" stroke-width="2" points="448.3371,-24.4825 457.9922,-20.1203 447.7241,-17.5094 448.3371,-24.4825"/>
</g>
<!-- 3 -->
<g id="node4" class="node">
<title>3</title>
<path fill="none" stroke="#56a2d8" stroke-width="2" d="M853.9953,-396C853.9953,-396 807.9953,-396 807.9953,-396 801.9953,-396 795.9953,-390 795.9953,-384 795.9953,-384 795.9953,-372 795.9953,-372 795.9953,-366 801.9953,-360 807.9953,-360 807.9953,-360 853.9953,-360 853.9953,-360 859.9953,-360 865.9953,-366 865.9953,-372 865.9953,-372 865.9953,-384 865.9953,-384 865.9953,-390 859.9953,-396 853.9953,-396"/>
<text text-anchor="middle" x="830.9953" y="-375.5" font-family="sans" font-size="10.00" fill="#000000">qc_multiqc</text>
</g>
<!-- 3&#45;&gt;0 -->
<g id="edge3" class="edge">
<title>3&#45;&gt;0</title>
<path fill="none" stroke="#c0c0c0" stroke-width="2" d="M824.6331,-359.615C815.8269,-332.4838 800.9953,-279.9662 800.9953,-234 800.9953,-234 800.9953,-234 800.9953,-162 800.9953,-101.3037 605.5082,-47.0036 522.0471,-26.5867"/>
<polygon fill="#c0c0c0" stroke="#c0c0c0" stroke-width="2" points="522.7531,-23.1566 512.2108,-24.2108 521.1095,-29.961 522.7531,-23.1566"/>
</g>
<!-- 4 -->
<g id="node5" class="node">
<title>4</title>
<path fill="none" stroke="#56d87b" stroke-width="2" d="M440.4953,-108C440.4953,-108 345.4953,-108 345.4953,-108 339.4953,-108 333.4953,-102 333.4953,-96 333.4953,-96 333.4953,-84 333.4953,-84 333.4953,-78 339.4953,-72 345.4953,-72 345.4953,-72 440.4953,-72 440.4953,-72 446.4953,-72 452.4953,-78 452.4953,-84 452.4953,-84 452.4953,-96 452.4953,-96 452.4953,-102 446.4953,-108 440.4953,-108"/>
<text text-anchor="middle" x="392.9953" y="-87.5" font-family="sans" font-size="10.00" fill="#000000">assembly_run_trinity</text>
</g>
<!-- 4&#45;&gt;0 -->
<g id="edge1" class="edge">
<title>4&#45;&gt;0</title>
<path fill="none" stroke="#c0c0c0" stroke-width="2" d="M416.2108,-71.8314C427.5423,-62.9632 441.3417,-52.1637 453.598,-42.5718"/>
<polygon fill="#c0c0c0" stroke="#c0c0c0" stroke-width="2" points="456.0693,-45.0822 461.7873,-36.1628 451.7551,-39.5697 456.0693,-45.0822"/>
</g>
<!-- 5 -->
<g id="node6" class="node">
<title>5</title>
<path fill="none" stroke="#68d856" stroke-width="2" d="M632.4953,-180C632.4953,-180 495.4953,-180 495.4953,-180 489.4953,-180 483.4953,-174 483.4953,-168 483.4953,-168 483.4953,-156 483.4953,-156 483.4953,-150 489.4953,-144 495.4953,-144 495.4953,-144 632.4953,-144 632.4953,-144 638.4953,-144 644.4953,-150 644.4953,-156 644.4953,-156 644.4953,-168 644.4953,-168 644.4953,-174 638.4953,-180 632.4953,-180"/>
<text text-anchor="middle" x="563.9953" y="-159.5" font-family="sans" font-size="10.00" fill="#000000">diginorm_fastqc_sample_pair</text>
</g>
<!-- 5&#45;&gt;1 -->
<g id="edge5" class="edge">
<title>5&#45;&gt;1</title>
<path fill="none" stroke="#c0c0c0" stroke-width="2" d="M556.9297,-143.8314C553.8693,-135.9617 550.2174,-126.5712 546.8272,-117.8533"/>
<polygon fill="#c0c0c0" stroke="#c0c0c0" stroke-width="2" points="550.0426,-116.4647 543.156,-108.4133 543.5185,-119.0019 550.0426,-116.4647"/>
</g>
<!-- 6 -->
<g id="node7" class="node">
<title>6</title>
<path fill="none" stroke="#ced856" stroke-width="2" d="M237.9953,-684C237.9953,-684 133.9953,-684 133.9953,-684 127.9953,-684 121.9953,-678 121.9953,-672 121.9953,-672 121.9953,-660 121.9953,-660 121.9953,-654 127.9953,-648 133.9953,-648 133.9953,-648 237.9953,-648 237.9953,-648 243.9953,-648 249.9953,-654 249.9953,-660 249.9953,-660 249.9953,-672 249.9953,-672 249.9953,-678 243.9953,-684 237.9953,-684"/>
<text text-anchor="middle" x="185.9953" y="-663.5" font-family="sans" font-size="10.00" fill="#000000">raw_fastqc_pe_sample</text>
</g>
<!-- 6&#45;&gt;2 -->
<g id="edge6" class="edge">
<title>6&#45;&gt;2</title>
<path fill="none" stroke="#c0c0c0" stroke-width="2" d="M184.6022,-647.7623C182.726,-623.201 179.3684,-579.2474 177.1613,-550.3541"/>
<polygon fill="#c0c0c0" stroke="#c0c0c0" stroke-width="2" points="180.6288,-549.794 176.3772,-540.0896 173.6491,-550.3272 180.6288,-549.794"/>
</g>
<!-- 7 -->
<g id="node8" class="node">
<title>7</title>
<path fill="none" stroke="#88d856" stroke-width="2" d="M318.9953,-612C318.9953,-612 214.9953,-612 214.9953,-612 208.9953,-612 202.9953,-606 202.9953,-600 202.9953,-600 202.9953,-588 202.9953,-588 202.9953,-582 208.9953,-576 214.9953,-576 214.9953,-576 318.9953,-576 318.9953,-576 324.9953,-576 330.9953,-582 330.9953,-588 330.9953,-588 330.9953,-600 330.9953,-600 330.9953,-606 324.9953,-612 318.9953,-612"/>
<text text-anchor="middle" x="266.9953" y="-591.5" font-family="sans" font-size="10.00" fill="#000000">raw_fastqc_se_sample</text>
</g>
<!-- 7&#45;&gt;2 -->
<g id="edge7" class="edge">
<title>7&#45;&gt;2</title>
<path fill="none" stroke="#c0c0c0" stroke-width="2" d="M243.7798,-575.8314C232.4483,-566.9632 218.6489,-556.1637 206.3927,-546.5718"/>
<polygon fill="#c0c0c0" stroke="#c0c0c0" stroke-width="2" points="208.2355,-543.5697 198.2034,-540.1628 203.9214,-549.0822 208.2355,-543.5697"/>
</g>
<!-- 8 -->
<g id="node9" class="node">
<title>8</title>
<path fill="none" stroke="#d88556" stroke-width="2" d="M769.9953,-540C769.9953,-540 665.9953,-540 665.9953,-540 659.9953,-540 653.9953,-534 653.9953,-528 653.9953,-528 653.9953,-516 653.9953,-516 653.9953,-510 659.9953,-504 665.9953,-504 665.9953,-504 769.9953,-504 769.9953,-504 775.9953,-504 781.9953,-510 781.9953,-516 781.9953,-516 781.9953,-528 781.9953,-528 781.9953,-534 775.9953,-540 769.9953,-540"/>
<text text-anchor="middle" x="717.9953" y="-519.5" font-family="sans" font-size="10.00" fill="#000000">qc_fastqc_sample_pair</text>
</g>
<!-- 8&#45;&gt;3 -->
<g id="edge8" class="edge">
<title>8&#45;&gt;3</title>
<path fill="none" stroke="#c0c0c0" stroke-width="2" d="M782.2734,-509.6747C805.4346,-501.7967 829.2313,-488.9396 842.9953,-468 855.0875,-449.604 850.415,-424.4947 843.6706,-405.4715"/>
<polygon fill="#c0c0c0" stroke="#c0c0c0" stroke-width="2" points="846.9277,-404.1903 840.0326,-396.1462 840.4064,-406.7344 846.9277,-404.1903"/>
</g>
<!-- 9 -->
<g id="node10" class="node">
<title>9</title>
<path fill="none" stroke="#9fd856" stroke-width="2" d="M453.4953,-180C453.4953,-180 304.4953,-180 304.4953,-180 298.4953,-180 292.4953,-174 292.4953,-168 292.4953,-168 292.4953,-156 292.4953,-156 292.4953,-150 298.4953,-144 304.4953,-144 304.4953,-144 453.4953,-144 453.4953,-144 459.4953,-144 465.4953,-150 465.4953,-156 465.4953,-156 465.4953,-168 465.4953,-168 465.4953,-174 459.4953,-180 453.4953,-180"/>
<text text-anchor="middle" x="378.9953" y="-159.5" font-family="sans" font-size="10.00" fill="#000000">assembly_merge_right_and_left</text>
</g>
<!-- 9&#45;&gt;4 -->
<g id="edge9" class="edge">
<title>9&#45;&gt;4</title>
<path fill="none" stroke="#c0c0c0" stroke-width="2" d="M382.5281,-143.8314C384.0254,-136.131 385.8059,-126.9743 387.4699,-118.4166"/>
<polygon fill="#c0c0c0" stroke="#c0c0c0" stroke-width="2" points="390.9418,-118.8975 389.415,-108.4133 384.0705,-117.5614 390.9418,-118.8975"/>
</g>
<!-- 10 -->
<g id="node11" class="node">
<title>10</title>
<path fill="none" stroke="#80d856" stroke-width="2" d="M729.4953,-324C729.4953,-324 544.4953,-324 544.4953,-324 538.4953,-324 532.4953,-318 532.4953,-312 532.4953,-312 532.4953,-300 532.4953,-300 532.4953,-294 538.4953,-288 544.4953,-288 544.4953,-288 729.4953,-288 729.4953,-288 735.4953,-288 741.4953,-294 741.4953,-300 741.4953,-300 741.4953,-312 741.4953,-312 741.4953,-318 735.4953,-324 729.4953,-324"/>
<text text-anchor="middle" x="636.9953" y="-303.5" font-family="sans" font-size="10.00" fill="#000000">diginorm_extract_paired_reads_sample</text>
</g>
<!-- 10&#45;&gt;5 -->
<g id="edge10" class="edge">
<title>10&#45;&gt;5</title>
<path fill="none" stroke="#c0c0c0" stroke-width="2" d="M700.1168,-287.9821C717.3203,-279.8624 733.9615,-268.3031 743.9953,-252 752.3816,-238.3739 753.5462,-228.8367 743.9953,-216 732.5048,-200.5564 693.3637,-187.8769 654.5037,-178.6944"/>
<polygon fill="#c0c0c0" stroke="#c0c0c0" stroke-width="2" points="655.1763,-175.2579 644.6471,-176.4357 653.6126,-182.0811 655.1763,-175.2579"/>
</g>
<!-- 11 -->
<g id="node12" class="node">
<title>11</title>
<path fill="none" stroke="#d87556" stroke-width="2" d="M570.9953,-252C570.9953,-252 372.9953,-252 372.9953,-252 366.9953,-252 360.9953,-246 360.9953,-240 360.9953,-240 360.9953,-228 360.9953,-228 360.9953,-222 366.9953,-216 372.9953,-216 372.9953,-216 570.9953,-216 570.9953,-216 576.9953,-216 582.9953,-222 582.9953,-228 582.9953,-228 582.9953,-240 582.9953,-240 582.9953,-246 576.9953,-252 570.9953,-252"/>
<text text-anchor="middle" x="471.9953" y="-231.5" font-family="sans" font-size="10.00" fill="#000000">diginorm_merge_pe_single_reads_sample</text>
</g>
<!-- 10&#45;&gt;11 -->
<g id="edge23" class="edge">
<title>10&#45;&gt;11</title>
<path fill="none" stroke="#c0c0c0" stroke-width="2" d="M595.3589,-287.8314C573.2911,-278.2018 546.0046,-266.295 522.7096,-256.1299"/>
<polygon fill="#c0c0c0" stroke="#c0c0c0" stroke-width="2" points="523.8976,-252.8296 513.3324,-252.038 521.098,-259.2454 523.8976,-252.8296"/>
</g>
<!-- 18 -->
<g id="node19" class="node">
<title>18</title>
<path fill="none" stroke="#569ad8" stroke-width="2" d="M722.4953,-252C722.4953,-252 613.4953,-252 613.4953,-252 607.4953,-252 601.4953,-246 601.4953,-240 601.4953,-240 601.4953,-228 601.4953,-228 601.4953,-222 607.4953,-216 613.4953,-216 613.4953,-216 722.4953,-216 722.4953,-216 728.4953,-216 734.4953,-222 734.4953,-228 734.4953,-228 734.4953,-240 734.4953,-240 734.4953,-246 728.4953,-252 722.4953,-252"/>
<text text-anchor="middle" x="667.9953" y="-231.5" font-family="sans" font-size="10.00" fill="#000000">assembly_split_pe_files</text>
</g>
<!-- 10&#45;&gt;18 -->
<g id="edge28" class="edge">
<title>10&#45;&gt;18</title>
<path fill="none" stroke="#c0c0c0" stroke-width="2" d="M644.8179,-287.8314C648.2063,-279.9617 652.2494,-270.5712 656.0029,-261.8533"/>
<polygon fill="#c0c0c0" stroke="#c0c0c0" stroke-width="2" points="659.3274,-262.9822 660.0674,-252.4133 652.8981,-260.214 659.3274,-262.9822"/>
</g>
<!-- 11&#45;&gt;5 -->
<g id="edge11" class="edge">
<title>11&#45;&gt;5</title>
<path fill="none" stroke="#c0c0c0" stroke-width="2" d="M495.2108,-215.8314C506.5423,-206.9632 520.3417,-196.1637 532.598,-186.5718"/>
<polygon fill="#c0c0c0" stroke="#c0c0c0" stroke-width="2" points="535.0693,-189.0822 540.7873,-180.1628 530.7551,-183.5697 535.0693,-189.0822"/>
</g>
<!-- 11&#45;&gt;9 -->
<g id="edge20" class="edge">
<title>11&#45;&gt;9</title>
<path fill="none" stroke="#c0c0c0" stroke-width="2" d="M448.5275,-215.8314C436.9627,-206.8779 422.8549,-195.9558 410.377,-186.2955"/>
<polygon fill="#c0c0c0" stroke="#c0c0c0" stroke-width="2" points="412.5055,-183.5171 402.4556,-180.1628 408.2203,-189.0521 412.5055,-183.5171"/>
</g>
<!-- 12 -->
<g id="node13" class="node">
<title>12</title>
<path fill="none" stroke="#d88d56" stroke-width="2" d="M330.9953,-252C330.9953,-252 148.9953,-252 148.9953,-252 142.9953,-252 136.9953,-246 136.9953,-240 136.9953,-240 136.9953,-228 136.9953,-228 136.9953,-222 142.9953,-216 148.9953,-216 148.9953,-216 330.9953,-216 330.9953,-216 336.9953,-216 342.9953,-222 342.9953,-228 342.9953,-228 342.9953,-240 342.9953,-240 342.9953,-246 336.9953,-252 330.9953,-252"/>
<text text-anchor="middle" x="239.9953" y="-231.5" font-family="sans" font-size="10.00" fill="#000000">dignorm_get_former_se_reads_sample</text>
</g>
<!-- 12&#45;&gt;5 -->
<g id="edge12" class="edge">
<title>12&#45;&gt;5</title>
<path fill="none" stroke="#c0c0c0" stroke-width="2" d="M321.336,-215.9243C367.6244,-205.638 425.7082,-192.7305 473.4426,-182.1228"/>
<polygon fill="#c0c0c0" stroke="#c0c0c0" stroke-width="2" points="474.4609,-185.482 483.4635,-179.896 472.9424,-178.6487 474.4609,-185.482"/>
</g>
<!-- 12&#45;&gt;9 -->
<g id="edge19" class="edge">
<title>12&#45;&gt;9</title>
<path fill="none" stroke="#c0c0c0" stroke-width="2" d="M275.0709,-215.8314C293.2614,-206.4089 315.6611,-194.8062 335.0013,-184.7883"/>
<polygon fill="#c0c0c0" stroke="#c0c0c0" stroke-width="2" points="336.6613,-187.8701 343.931,-180.1628 333.4417,-181.6545 336.6613,-187.8701"/>
</g>
<!-- 13 -->
<g id="node14" class="node">
<title>13</title>
<path fill="none" stroke="#d8ac56" stroke-width="2" d="M406.4953,-756C406.4953,-756 275.4953,-756 275.4953,-756 269.4953,-756 263.4953,-750 263.4953,-744 263.4953,-744 263.4953,-732 263.4953,-732 263.4953,-726 269.4953,-720 275.4953,-720 275.4953,-720 406.4953,-720 406.4953,-720 412.4953,-720 418.4953,-726 418.4953,-732 418.4953,-732 418.4953,-744 418.4953,-744 418.4953,-750 412.4953,-756 406.4953,-756"/>
<text text-anchor="middle" x="340.9953" y="-735.5" font-family="sans" font-size="10.00" fill="#000000">raw_make_links_pe_sample</text>
</g>
<!-- 13&#45;&gt;6 -->
<g id="edge13" class="edge">
<title>13&#45;&gt;6</title>
<path fill="none" stroke="#c0c0c0" stroke-width="2" d="M301.8823,-719.8314C281.2441,-710.2446 255.747,-698.4008 233.928,-688.2655"/>
<polygon fill="#c0c0c0" stroke="#c0c0c0" stroke-width="2" points="235.3709,-685.0766 224.8271,-684.038 232.4219,-691.4251 235.3709,-685.0766"/>
</g>
<!-- 15 -->
<g id="node16" class="node">
<title>15</title>
<path fill="none" stroke="#bed856" stroke-width="2" d="M573.9953,-684C573.9953,-684 483.9953,-684 483.9953,-684 477.9953,-684 471.9953,-678 471.9953,-672 471.9953,-672 471.9953,-660 471.9953,-660 471.9953,-654 477.9953,-648 483.9953,-648 483.9953,-648 573.9953,-648 573.9953,-648 579.9953,-648 585.9953,-654 585.9953,-660 585.9953,-660 585.9953,-672 585.9953,-672 585.9953,-678 579.9953,-684 573.9953,-684"/>
<text text-anchor="middle" x="528.9953" y="-663.5" font-family="sans" font-size="10.00" fill="#000000">qc_trimmomatic_pe</text>
</g>
<!-- 13&#45;&gt;15 -->
<g id="edge25" class="edge">
<title>13&#45;&gt;15</title>
<path fill="none" stroke="#c0c0c0" stroke-width="2" d="M388.4357,-719.8314C413.9148,-710.0734 445.4997,-697.977 472.271,-687.7242"/>
<polygon fill="#c0c0c0" stroke="#c0c0c0" stroke-width="2" points="473.8093,-690.883 481.8961,-684.038 471.3058,-684.346 473.8093,-690.883"/>
</g>
<!-- 14 -->
<g id="node15" class="node">
<title>14</title>
<path fill="none" stroke="#568ad8" stroke-width="2" d="M430.9953,-684C430.9953,-684 300.9953,-684 300.9953,-684 294.9953,-684 288.9953,-678 288.9953,-672 288.9953,-672 288.9953,-660 288.9953,-660 288.9953,-654 294.9953,-648 300.9953,-648 300.9953,-648 430.9953,-648 430.9953,-648 436.9953,-648 442.9953,-654 442.9953,-660 442.9953,-660 442.9953,-672 442.9953,-672 442.9953,-678 436.9953,-684 430.9953,-684"/>
<text text-anchor="middle" x="365.9953" y="-663.5" font-family="sans" font-size="10.00" fill="#000000">raw_make_links_se_sample</text>
</g>
<!-- 14&#45;&gt;7 -->
<g id="edge14" class="edge">
<title>14&#45;&gt;7</title>
<path fill="none" stroke="#c0c0c0" stroke-width="2" d="M341.0134,-647.8314C328.7025,-638.8779 313.6846,-627.9558 300.4016,-618.2955"/>
<polygon fill="#c0c0c0" stroke="#c0c0c0" stroke-width="2" points="302.1152,-615.214 291.9692,-612.1628 297.998,-620.8752 302.1152,-615.214"/>
</g>
<!-- 17 -->
<g id="node18" class="node">
<title>17</title>
<path fill="none" stroke="#56d8a2" stroke-width="2" d="M488.4953,-612C488.4953,-612 399.4953,-612 399.4953,-612 393.4953,-612 387.4953,-606 387.4953,-600 387.4953,-600 387.4953,-588 387.4953,-588 387.4953,-582 393.4953,-576 399.4953,-576 399.4953,-576 488.4953,-576 488.4953,-576 494.4953,-576 500.4953,-582 500.4953,-588 500.4953,-588 500.4953,-600 500.4953,-600 500.4953,-606 494.4953,-612 488.4953,-612"/>
<text text-anchor="middle" x="443.9953" y="-591.5" font-family="sans" font-size="10.00" fill="#000000">qc_trimmomatic_se</text>
</g>
<!-- 14&#45;&gt;17 -->
<g id="edge27" class="edge">
<title>14&#45;&gt;17</title>
<path fill="none" stroke="#c0c0c0" stroke-width="2" d="M385.678,-647.8314C395.1004,-639.1337 406.5355,-628.5783 416.7749,-619.1265"/>
<polygon fill="#c0c0c0" stroke="#c0c0c0" stroke-width="2" points="419.3449,-621.5175 424.3189,-612.1628 414.5969,-616.3738 419.3449,-621.5175"/>
</g>
<!-- 15&#45;&gt;8 -->
<g id="edge17" class="edge">
<title>15&#45;&gt;8</title>
<path fill="none" stroke="#c0c0c0" stroke-width="2" d="M586.1193,-659.6579C620.1306,-653.0479 661.8204,-639.5519 688.9953,-612 705.2161,-595.5542 712.3667,-569.9968 715.5174,-550.3127"/>
<polygon fill="#c0c0c0" stroke="#c0c0c0" stroke-width="2" points="718.9923,-550.7334 716.8581,-540.3558 712.0549,-549.7993 718.9923,-550.7334"/>
</g>
<!-- 16 -->
<g id="node17" class="node">
<title>16</title>
<path fill="none" stroke="#d85e56" stroke-width="2" d="M667.4953,-612C667.4953,-612 574.4953,-612 574.4953,-612 568.4953,-612 562.4953,-606 562.4953,-600 562.4953,-600 562.4953,-588 562.4953,-588 562.4953,-582 568.4953,-576 574.4953,-576 574.4953,-576 667.4953,-576 667.4953,-576 673.4953,-576 679.4953,-582 679.4953,-588 679.4953,-588 679.4953,-600 679.4953,-600 679.4953,-606 673.4953,-612 667.4953,-612"/>
<text text-anchor="middle" x="620.9953" y="-591.5" font-family="sans" font-size="10.00" fill="#000000">qc_interleave_pe_pe</text>
</g>
<!-- 15&#45;&gt;16 -->
<g id="edge26" class="edge">
<title>15&#45;&gt;16</title>
<path fill="none" stroke="#c0c0c0" stroke-width="2" d="M552.2108,-647.8314C563.5423,-638.9632 577.3417,-628.1637 589.598,-618.5718"/>
<polygon fill="#c0c0c0" stroke="#c0c0c0" stroke-width="2" points="592.0693,-621.0822 597.7873,-612.1628 587.7551,-615.5697 592.0693,-621.0822"/>
</g>
<!-- 20 -->
<g id="node21" class="node">
<title>20</title>
<path fill="none" stroke="#56d873" stroke-width="2" d="M585.9953,-540C585.9953,-540 451.9953,-540 451.9953,-540 445.9953,-540 439.9953,-534 439.9953,-528 439.9953,-528 439.9953,-516 439.9953,-516 439.9953,-510 445.9953,-504 451.9953,-504 451.9953,-504 585.9953,-504 585.9953,-504 591.9953,-504 597.9953,-510 597.9953,-516 597.9953,-516 597.9953,-528 597.9953,-528 597.9953,-534 591.9953,-540 585.9953,-540"/>
<text text-anchor="middle" x="518.9953" y="-519.5" font-family="sans" font-size="10.00" fill="#000000">diginorm_load_into_counting</text>
</g>
<!-- 15&#45;&gt;20 -->
<g id="edge35" class="edge">
<title>15&#45;&gt;20</title>
<path fill="none" stroke="#c0c0c0" stroke-width="2" d="M527.7288,-647.7623C526.0232,-623.201 522.9708,-579.2474 520.9644,-550.3541"/>
<polygon fill="#c0c0c0" stroke="#c0c0c0" stroke-width="2" points="524.436,-549.8231 520.2515,-540.0896 517.4528,-550.3081 524.436,-549.8231"/>
</g>
<!-- 22 -->
<g id="node23" class="node">
<title>22</title>
<path fill="none" stroke="#d8a456" stroke-width="2" d="M265.9953,-468C265.9953,-468 41.9953,-468 41.9953,-468 35.9953,-468 29.9953,-462 29.9953,-456 29.9953,-456 29.9953,-444 29.9953,-444 29.9953,-438 35.9953,-432 41.9953,-432 41.9953,-432 265.9953,-432 265.9953,-432 271.9953,-432 277.9953,-438 277.9953,-444 277.9953,-444 277.9953,-456 277.9953,-456 277.9953,-462 271.9953,-468 265.9953,-468"/>
<text text-anchor="middle" x="153.9953" y="-447.5" font-family="sans" font-size="10.00" fill="#000000">diginorm_normalize_by_median_sample_pe_se</text>
</g>
<!-- 15&#45;&gt;22 -->
<g id="edge38" class="edge">
<title>15&#45;&gt;22</title>
<path fill="none" stroke="#c0c0c0" stroke-width="2" d="M471.9789,-651.7175C442.5867,-642.8776 406.9362,-629.7801 377.9953,-612 358.1729,-599.8219 358.1305,-590.5723 339.9953,-576 291.4409,-536.9847 231.0831,-497.6136 192.5431,-473.5133"/>
<polygon fill="#c0c0c0" stroke="#c0c0c0" stroke-width="2" points="194.0519,-470.3299 183.712,-468.0195 190.3543,-476.2737 194.0519,-470.3299"/>
</g>
<!-- 16&#45;&gt;8 -->
<g id="edge15" class="edge">
<title>16&#45;&gt;8</title>
<path fill="none" stroke="#c0c0c0" stroke-width="2" d="M645.4725,-575.8314C657.5348,-566.8779 672.2493,-555.9558 685.2639,-546.2955"/>
<polygon fill="#c0c0c0" stroke="#c0c0c0" stroke-width="2" points="687.5823,-548.9335 693.526,-540.1628 683.4102,-543.3127 687.5823,-548.9335"/>
</g>
<!-- 16&#45;&gt;20 -->
<g id="edge33" class="edge">
<title>16&#45;&gt;20</title>
<path fill="none" stroke="#c0c0c0" stroke-width="2" d="M595.2564,-575.8314C582.4516,-566.7927 566.8044,-555.7476 553.0234,-546.0198"/>
<polygon fill="#c0c0c0" stroke="#c0c0c0" stroke-width="2" points="554.9141,-543.0703 544.726,-540.1628 550.8773,-548.7891 554.9141,-543.0703"/>
</g>
<!-- 21 -->
<g id="node22" class="node">
<title>21</title>
<path fill="none" stroke="#56b9d8" stroke-width="2" d="M821.4953,-468C821.4953,-468 596.4953,-468 596.4953,-468 590.4953,-468 584.4953,-462 584.4953,-456 584.4953,-456 584.4953,-444 584.4953,-444 584.4953,-438 590.4953,-432 596.4953,-432 596.4953,-432 821.4953,-432 821.4953,-432 827.4953,-432 833.4953,-438 833.4953,-444 833.4953,-444 833.4953,-456 833.4953,-456 833.4953,-462 827.4953,-468 821.4953,-468"/>
<text text-anchor="middle" x="708.9953" y="-447.5" font-family="sans" font-size="10.00" fill="#000000">diginorm_normalize_by_median_sample_pe_pe</text>
</g>
<!-- 16&#45;&gt;21 -->
<g id="edge36" class="edge">
<title>16&#45;&gt;21</title>
<path fill="none" stroke="#c0c0c0" stroke-width="2" d="M622.6061,-575.8096C625.0072,-556.6591 630.8764,-526.2585 644.9953,-504 652.123,-492.7633 662.3353,-482.6586 672.5154,-474.3129"/>
<polygon fill="#c0c0c0" stroke="#c0c0c0" stroke-width="2" points="674.8723,-476.9136 680.6131,-468.0089 670.5723,-471.3901 674.8723,-476.9136"/>
</g>
<!-- 17&#45;&gt;8 -->
<g id="edge16" class="edge">
<title>17&#45;&gt;8</title>
<path fill="none" stroke="#c0c0c0" stroke-width="2" d="M500.7683,-579.0816C542.2423,-568.1833 598.8619,-553.3051 643.8979,-541.4709"/>
<polygon fill="#c0c0c0" stroke="#c0c0c0" stroke-width="2" points="644.8317,-544.8444 653.6138,-538.9178 643.0527,-538.0742 644.8317,-544.8444"/>
</g>
<!-- 17&#45;&gt;20 -->
<g id="edge34" class="edge">
<title>17&#45;&gt;20</title>
<path fill="none" stroke="#c0c0c0" stroke-width="2" d="M462.921,-575.8314C471.981,-567.1337 482.9762,-556.5783 492.8219,-547.1265"/>
<polygon fill="#c0c0c0" stroke="#c0c0c0" stroke-width="2" points="495.2857,-549.613 500.0757,-540.1628 490.4379,-544.5633 495.2857,-549.613"/>
</g>
<!-- 23 -->
<g id="node24" class="node">
<title>23</title>
<path fill="none" stroke="#5682d8" stroke-width="2" d="M515.4953,-468C515.4953,-468 308.4953,-468 308.4953,-468 302.4953,-468 296.4953,-462 296.4953,-456 296.4953,-456 296.4953,-444 296.4953,-444 296.4953,-438 302.4953,-432 308.4953,-432 308.4953,-432 515.4953,-432 515.4953,-432 521.4953,-432 527.4953,-438 527.4953,-444 527.4953,-444 527.4953,-456 527.4953,-456 527.4953,-462 521.4953,-468 515.4953,-468"/>
<text text-anchor="middle" x="411.9953" y="-447.5" font-family="sans" font-size="10.00" fill="#000000">diginorm_normalize_by_median_sample_se</text>
</g>
<!-- 17&#45;&gt;23 -->
<g id="edge40" class="edge">
<title>17&#45;&gt;23</title>
<path fill="none" stroke="#c0c0c0" stroke-width="2" d="M439.414,-575.5357C436.8634,-565.118 433.6723,-551.8514 430.9953,-540 426.3624,-519.4895 421.4689,-496.2685 417.8085,-478.5512"/>
<polygon fill="#c0c0c0" stroke="#c0c0c0" stroke-width="2" points="421.144,-477.3948 415.7021,-468.3044 414.2874,-478.8044 421.144,-477.3948"/>
</g>
<!-- 18&#45;&gt;9 -->
<g id="edge18" class="edge">
<title>18&#45;&gt;9</title>
<path fill="none" stroke="#c0c0c0" stroke-width="2" d="M601.33,-217.3913C559.6415,-207.0053 505.6333,-193.5499 461.2866,-182.5016"/>
<polygon fill="#c0c0c0" stroke="#c0c0c0" stroke-width="2" points="461.9495,-179.0599 451.4,-180.0385 460.2573,-185.8523 461.9495,-179.0599"/>
</g>
<!-- 19 -->
<g id="node20" class="node">
<title>19</title>
<path fill="none" stroke="#d86e56" stroke-width="2" d="M553.9953,-396C553.9953,-396 389.9953,-396 389.9953,-396 383.9953,-396 377.9953,-390 377.9953,-384 377.9953,-384 377.9953,-372 377.9953,-372 377.9953,-366 383.9953,-360 389.9953,-360 389.9953,-360 553.9953,-360 553.9953,-360 559.9953,-360 565.9953,-366 565.9953,-372 565.9953,-372 565.9953,-384 565.9953,-384 565.9953,-390 559.9953,-396 553.9953,-396"/>
<text text-anchor="middle" x="471.9953" y="-375.5" font-family="sans" font-size="10.00" fill="#000000">diginorm_filter_abund_sample_pair</text>
</g>
<!-- 19&#45;&gt;10 -->
<g id="edge21" class="edge">
<title>19&#45;&gt;10</title>
<path fill="none" stroke="#c0c0c0" stroke-width="2" d="M513.6318,-359.8314C535.6996,-350.2018 562.986,-338.295 586.281,-328.1299"/>
<polygon fill="#c0c0c0" stroke="#c0c0c0" stroke-width="2" points="587.8927,-331.2454 595.6583,-324.038 585.093,-324.8296 587.8927,-331.2454"/>
</g>
<!-- 19&#45;&gt;11 -->
<g id="edge22" class="edge">
<title>19&#45;&gt;11</title>
<path fill="none" stroke="#c0c0c0" stroke-width="2" d="M471.9953,-359.7623C471.9953,-335.201 471.9953,-291.2474 471.9953,-262.3541"/>
<polygon fill="#c0c0c0" stroke="#c0c0c0" stroke-width="2" points="475.4954,-262.0896 471.9953,-252.0896 468.4954,-262.0897 475.4954,-262.0896"/>
</g>
<!-- 19&#45;&gt;12 -->
<g id="edge24" class="edge">
<title>19&#45;&gt;12</title>
<path fill="none" stroke="#c0c0c0" stroke-width="2" d="M442.6124,-359.7623C400.6881,-333.7404 323.6939,-285.9508 277.6407,-257.3661"/>
<polygon fill="#c0c0c0" stroke="#c0c0c0" stroke-width="2" points="279.4819,-254.3895 269.1397,-252.0896 275.7903,-260.337 279.4819,-254.3895"/>
</g>
<!-- 20&#45;&gt;19 -->
<g id="edge32" class="edge">
<title>20&#45;&gt;19</title>
<path fill="none" stroke="#c0c0c0" stroke-width="2" d="M528.9296,-503.96C537.8409,-485.2018 547.9621,-455.3684 536.9953,-432 531.5363,-420.3676 522.2041,-410.3739 512.2881,-402.2592"/>
<polygon fill="#c0c0c0" stroke="#c0c0c0" stroke-width="2" points="514.3503,-399.4304 504.2732,-396.1588 510.1107,-405.0005 514.3503,-399.4304"/>
</g>
<!-- 20&#45;&gt;21 -->
<g id="edge37" class="edge">
<title>20&#45;&gt;21</title>
<path fill="none" stroke="#c0c0c0" stroke-width="2" d="M566.9403,-503.8314C592.8035,-494.0306 624.8916,-481.8709 652.0233,-471.5894"/>
<polygon fill="#c0c0c0" stroke="#c0c0c0" stroke-width="2" points="653.2842,-474.8545 661.3951,-468.038 650.8037,-468.3087 653.2842,-474.8545"/>
</g>
<!-- 20&#45;&gt;22 -->
<g id="edge39" class="edge">
<title>20&#45;&gt;22</title>
<path fill="none" stroke="#c0c0c0" stroke-width="2" d="M439.7958,-506.3771C385.687,-495.7036 313.5141,-481.4667 255.2342,-469.9704"/>
<polygon fill="#c0c0c0" stroke="#c0c0c0" stroke-width="2" points="255.7535,-466.5055 245.2652,-468.0039 254.3988,-473.3731 255.7535,-466.5055"/>
</g>
<!-- 20&#45;&gt;23 -->
<g id="edge41" class="edge">
<title>20&#45;&gt;23</title>
<path fill="none" stroke="#c0c0c0" stroke-width="2" d="M491.9947,-503.8314C478.5622,-494.7927 462.148,-483.7476 447.6914,-474.0198"/>
<polygon fill="#c0c0c0" stroke="#c0c0c0" stroke-width="2" points="449.2379,-470.8418 438.9873,-468.1628 445.3299,-476.6494 449.2379,-470.8418"/>
</g>
<!-- 21&#45;&gt;19 -->
<g id="edge31" class="edge">
<title>21&#45;&gt;19</title>
<path fill="none" stroke="#c0c0c0" stroke-width="2" d="M649.4961,-431.9243C616.6742,-421.9531 575.7447,-409.5188 541.4627,-399.104"/>
<polygon fill="#c0c0c0" stroke="#c0c0c0" stroke-width="2" points="542.1046,-395.6411 531.519,-396.0831 540.0698,-402.3389 542.1046,-395.6411"/>
</g>
<!-- 22&#45;&gt;19 -->
<g id="edge29" class="edge">
<title>22&#45;&gt;19</title>
<path fill="none" stroke="#c0c0c0" stroke-width="2" d="M233.8297,-431.9243C279.0891,-421.6769 335.8382,-408.828 382.5877,-398.2432"/>
<polygon fill="#c0c0c0" stroke="#c0c0c0" stroke-width="2" points="383.4238,-401.6426 392.404,-396.0207 381.8779,-394.8154 383.4238,-401.6426"/>
</g>
<!-- 23&#45;&gt;19 -->
<g id="edge30" class="edge">
<title>23&#45;&gt;19</title>
<path fill="none" stroke="#c0c0c0" stroke-width="2" d="M427.1359,-431.8314C434.117,-423.454 442.5344,-413.3531 450.1829,-404.1749"/>
<polygon fill="#c0c0c0" stroke="#c0c0c0" stroke-width="2" points="452.9378,-406.3362 456.6509,-396.4133 447.5603,-401.8548 452.9378,-406.3362"/>
</g>
</g>
</svg>
